<?xml version="1.0" encoding="utf-8"?>
<!-- Generator: Adobe Illustrator 17.1.0, SVG Export Plug-In . SVG Version: 6.00 Build 0)  -->
<!DOCTYPE svg PUBLIC "-//W3C//DTD SVG 1.1//EN" "http://www.w3.org/Graphics/SVG/1.1/DTD/svg11.dtd">
<svg version="1.1" id="Layer_1" xmlns="http://www.w3.org/2000/svg" xmlns:xlink="http://www.w3.org/1999/xlink" x="0px" y="0px"
	 viewBox="0 0 128 128" enable-background="new 0 0 128 128" xml:space="preserve">
<g>
	<path fill="#3E4E5C" d="M64,0c35.3,0,64,28.7,64,64c0,35.3-28.7,64-64,64S0,99.3,0,64C0,28.7,28.7,0,64,0z"/>
	<g>
		<defs>
			<circle id="SVGID_3_" cx="64" cy="64" r="64"/>
		</defs>
		<clipPath id="SVGID_1_">
			<use xlink:href="#SVGID_3_"  overflow="visible"/>
		</clipPath>
		<g clip-path="url(#SVGID_1_)">
			<path fill="#2F4857" d="M8.1,100.8C8,101.5,8,102.3,8,103c0,7,3.6,13.4,9.5,17c0.5,2.7,1.3,5.4,2.4,8H31l0-0.5
				c0-6.9,7.6-12.5,17-12.5c6.2,0,11.5,1.9,14.5,5.3l1.5,1.7l1.5-1.7c3-3.4,8.3-5.3,14.5-5.3c9.4,0,17,5.6,17,12.5l0,0.5h11.2
				c1-2.6,1.8-5.3,2.3-8c5.9-3.6,9.5-10.1,9.5-17c0-0.7,0-1.5-0.1-2.2c6.3-1.1,11.1-6.7,11.1-13.3c0-7.4-6.1-13.5-13.5-13.5
				c-6,0-11.2,4-12.9,9.5c-3.3-0.8-6.6-0.7-10,0.2l-2,0.6l0.7,2c1.7,4.9,1.6,8.3,0.9,9.4c-0.1,0.2-0.3,0.3-0.8,0.3L93,96
				c-1.1-0.1-2.2-0.6-3.7-1.2c-2.7-1.2-6.1-2.6-11.6-2.8l-1,0L76,92.8c-0.8,1.1-2.3,2.3-6.8,2.9l-3.6,0.4l2.2,2.8
				c0.3,0.4,0.5,0.9,0.7,1.3l0.1,0.2l0,0.2l0,0.4c0,3.3-3.2,9-5,9c-1.8,0-5-5.7-5-9l0-0.3l0-0.1l0.1-0.2c0.1-0.5,0.3-0.9,0.6-1.3
				l2.1-2.8l-3.5-0.4c-4.7-0.5-6.1-1.6-6.8-2.8l-0.6-1l-1.2,0c-5.4,0.2-8.7,1.6-11.4,2.7c-1.5,0.6-2.6,1.1-3.7,1.2l-0.3,0
				c-0.5,0-0.7-0.2-0.8-0.3c-0.8-1.1-0.8-4.5,0.9-9.5l0.7-2.1l-2.2-0.5c-3-0.7-6.1-0.7-9.1,0C21.7,78,16.5,74,10.5,74
				C3.1,74-3,80.1-3,87.5C-3,94.1,1.8,99.7,8.1,100.8L8.1,100.8z"/>
			<path fill="#4D6471" d="M10.5,99c-0.3,1.3-0.5,2.6-0.5,4c0,6.8,3.8,12.7,9.4,15.8c0.5,3,1.4,6.2,2.8,9.2H29l0-0.5
				c0-8,8.5-14.5,19-14.5c6.8,0,12.7,2.2,16,5.9c3.3-3.7,9.2-5.9,16-5.9c10.5,0,19,6.5,19,14.5l0,0.5h7c1.3-3,2.2-6.2,2.7-9.2
				c5.6-3.1,9.4-9,9.4-15.8c0-1.4-0.2-2.7-0.5-4c6.3,0,11.5-5.2,11.5-11.5c0-6.4-5.1-11.5-11.5-11.5c-5.9,0-10.7,4.4-11.4,10.1
				c-1.9-0.7-4-1.1-6.1-1.1c-1.7,0-3.3,0.3-4.9,0.7c2.3,6.9,2.2,12.8-2.4,12.3c-3.7-0.4-7-3.7-15.1-4c-1.3,1.8-3.5,3.1-8.1,3.7
				c0.5,0.6,0.9,1.3,1,2.1c0.1,0.2,0.1,0.5,0.1,0.7l0,0.2l0,0.3c0,3.6-3.4,11-7,11c-3.6,0-7-7.4-7-11l0-0.3l0-0.2
				c0-0.2,0-0.4,0.1-0.7c0.2-0.8,0.5-1.5,0.9-2.1c-5.1-0.5-7.1-1.8-8.3-3.8c-8,0.3-11.3,3.5-15,4c-4.6,0.5-4.7-5.5-2.3-12.5
				c-1.3-0.3-2.7-0.5-4-0.5c-2.1,0-4.2,0.4-6.1,1.1C21.2,80.4,16.4,76,10.5,76C4.1,76-1,81.1-1,87.5C-1,93.8,4.1,99,10.5,99z"/>
			<path fill="#F6666A" d="M47,65c-11.9,4.4-21.7,32.1-12.1,31c3.9-0.5,7.2-4,16.2-4c0,0-1.9-1.3-2-5C48.1,79.1,46.9,65,47,65z"/>
			<path fill="#BD3E25" d="M49,87c-0.8-7.9-2-21.9-2-22c-1,0.4-2,0.9-2.9,1.6c0.2,12.8,1.7,19.7,2.2,21.8c0.3,1.5,0.6,2.7,1.3,3.8
				C48.6,92,49.7,92,51,92C51,92,49.1,90.7,49,87z"/>
			<path fill="#647883" d="M97,128l0-0.5c0-6.9-7.6-12.5-17-12.5c-7.4,0-13.7,2.9-16,7.4c-2.3-4.6-8.6-7.4-16-7.4
				c-9.4,0-17,5.6-17,12.5l0,0.5H97z"/>
			<path fill="#F9A224" d="M63.9,93c3.6,0,7.1,2.4,7.1,6s-3.4,11-7,11c-3.6,0-7-7.4-7-11S60.3,93,63.9,93z"/>
			<path fill="#F6666A" d="M81,65c11.8,4.4,21.5,32.1,12,31c-3.8-0.5-7.2-4-16-4c0,0,1.9-1.3,2-5C79.8,79.1,81,65,81,65z"/>
			<path fill="#BD3E25" d="M81.8,88.2c0.4-2,1.9-8.9,2.2-21.6c-1-0.7-2-1.2-3-1.6c0,0-1.2,14.1-2,22c-0.1,3.7-2,5-2,5
				c1.2,0,2.2,0.1,3.2,0.2C81,91.1,81.4,89.7,81.8,88.2z"/>
			<path fill="#F9A224" d="M64,95c3.9,0,7,1.6,7,3.5c0,1.9-3.1,3.5-7,3.5s-7-1.6-7-3.5C57,96.6,60.1,95,64,95z"/>
			<path fill="#FFFFFF" d="M63.5,19C66,18.9,82,38.7,82,63c0,15-1.8,23-2.2,25.2c-1.1,5-3.2,7.8-16.3,7.8c-13.1,0-14.3-2.9-15.3-7.6
				C47.7,86.1,46,78,46,63C46,38.7,61,19.1,63.5,19z"/>
			<path fill="#334D5D" d="M64,39c5,0,9,4,9,9s-4,9-9,9c-5,0-9-4-9-9S59,39,64,39z"/>
			<path fill="#ADB2B3" d="M64,42c3.3,0,6,2.7,6,6c0,3.3-2.7,6-6,6c-3.3,0-6-2.7-6-6C58,44.7,60.7,42,64,42z"/>
			<path fill="#E6E6E6" d="M63.5,19c-0.2,0-0.6,0.2-1,0.5C66.9,22.7,80,41,80,63c0,15-1.8,23-2.2,25.2c-1.1,4.9-3.1,7.6-15.3,7.8
				l1,0c13.1,0,15.2-2.8,16.3-7.8C80.2,86,82,78,82,63C82,38.7,66,18.9,63.5,19z"/>
			<path fill="#E6E6E6" d="M64,57c-4.6,0-8.4-3.5-8.9-8c0,0.3-0.1,0.7-0.1,1c0,5,4,9,9,9c5,0,9-4,9-9c0-0.3,0-0.7-0.1-1
				C72.4,53.5,68.6,57,64,57z"/>
			<path fill="#F6666A" d="M63.9,65c2.5,0,5.1,4.6,5.1,14c0,9.4-2.6,20-5.1,20C61.5,99,59,88.4,59,79C59,69.6,61.5,65,63.9,65z"/>
			<path fill="#C95140" d="M64,65c2.5,0,5,4.6,5,14c0,9.4-2.5,20-5,20"/>
		</g>
	</g>
</g>
</svg>
