<?xml version="1.0" encoding="utf-8"?>
<!-- Generator: Adobe Illustrator 17.1.0, SVG Export Plug-In . SVG Version: 6.00 Build 0)  -->
<!DOCTYPE svg PUBLIC "-//W3C//DTD SVG 1.1//EN" "http://www.w3.org/Graphics/SVG/1.1/DTD/svg11.dtd">
<svg version="1.1" id="Layer_1" xmlns="http://www.w3.org/2000/svg" xmlns:xlink="http://www.w3.org/1999/xlink" x="0px" y="0px"
	 viewBox="0 0 128 128" enable-background="new 0 0 128 128" xml:space="preserve">
<g>
	<path fill="#3E4E5C" d="M64,0c35.3,0,64,28.7,64,64s-28.7,64-64,64S0,99.3,0,64C0,28.7,28.7,0,64,0z"/>
	<path fill="#5F727F" d="M31.5,119.1c9.5,5.6,20.6,8.9,32.5,8.9c11.9,0,22.9-3.2,32.5-8.9L81,65H47C47,65,31.5,119.1,31.5,119.1z"/>
	<path fill="#DF5A48" d="M64,53c26,0,47,6.7,47,15c0,8.3-21,15-47,15s-47-6.7-47-15C17,59.7,38,53,64,53z"/>
	<path fill="#EFC84A" d="M88.4,53.5C81.6,51.9,73.2,51,64,51c-9.1,0-17.5,0.9-24.4,2.4C29.5,55.7,23,59.4,23,63.5
		C23,70.4,41.4,76,64,76c22.6,0,41-5.6,41-12.5C105,59.4,98.5,55.7,88.4,53.5z M64,70.4c-17.7,0-32.1-3.1-32.1-6.9
		c0-1.7,2.9-3.3,7.7-4.5c5.9-1.5,14.7-2.4,24.4-2.4c9.7,0,18.4,0.9,24.3,2.4c4.9,1.2,7.9,2.8,7.9,4.5C96.1,67.3,81.7,70.4,64,70.4z"
		/>
	<path fill="#DCDFE0" d="M64,38c12.7,0,22.1,10.3,23,23c0.1,2.1-10.3,4-23,4c-12.7,0-23-2.2-23-4C41,48.3,51.3,38,64,38z"/>
	<path fill="#EEEFEF" d="M65,41c0.4,0-6.9,8.2-7,20c-6.9-0.4-10-0.7-10-2C48,49.6,55.6,41,65,41z"/>
	<path fill="#EFC84A" d="M111,46.5L111,46.5c0,0-5.8-0.1-6.3-0.8c-0.4-0.7,1.6-3,1.6-3s-2.3,2-3,1.6c-0.7-0.4-0.8-6.3-0.8-6.3
		s-0.1,5.8-0.8,6.3c-0.7,0.4-3-1.6-3-1.6s2,2.3,1.6,3L94,46.5v0c0,0,5.8,0.1,6.3,0.8c0.4,0.7-1.6,3-1.6,3s2.3-2,3-1.6
		c0.7,0.4,0.8,6.3,0.8,6.3s0.1-5.8,0.8-6.3l3,1.6c0,0-2-2.3-1.6-3L111,46.5z M34.3,15.7c0,0-2.3,2-3,1.6c-0.7-0.4-0.8-6.3-0.8-6.3
		s-0.1,5.8-0.8,6.3c-0.7,0.4-3-1.6-3-1.6s2,2.3,1.6,3c-0.4,0.7-6.3,0.8-6.3,0.8v0c0,0,5.8,0.1,6.3,0.8c0.4,0.7-1.6,3-1.6,3
		s2.3-2,3-1.6c0.7,0.4,0.8,6.3,0.8,6.3s0.1-5.8,0.8-6.3c0.7-0.4,3,1.6,3,1.6s-2-2.3-1.6-3c0.4-0.7,6.3-0.8,6.3-0.8v0
		c0,0-5.8-0.1-6.3-0.8C32.3,18,34.3,15.7,34.3,15.7z M36,44c0,0-1.5,1.3-2,1c-0.5-0.3-0.5-4-0.5-4s-0.1,3.8-0.5,4c-0.5,0.3-2-1-2-1
		s1.3,1.5,1,2c-0.3,0.5-4.1,0.5-4.1,0.5v0c0,0,3.8,0.1,4.1,0.5c0.3,0.5-1,2-1,2s1.5-1.3,2-1c0.5,0.3,0.5,4,0.5,4s0.1-3.8,0.5-4
		c0.5-0.3,2,1,2,1s-1.3-1.5-1-2c0.3-0.5,4-0.5,4-0.5v0c0,0-3.8-0.1-4-0.5C34.7,45.5,36,44,36,44z M78,24c0,0-1.5,1.3-2,1
		c-0.5-0.3-0.5-4-0.5-4s-0.1,3.8-0.5,4c-0.5,0.3-2-1-2-1s1.3,1.5,1,2c-0.3,0.5-4.1,0.5-4.1,0.5v0c0,0,3.8,0.1,4.1,0.5
		c0.3,0.5-1,2-1,2s1.5-1.3,2-1c0.5,0.3,0.5,4,0.5,4s0.1-3.8,0.5-4c0.5-0.3,2,1,2,1s-1.3-1.5-1-2s4.1-0.5,4.1-0.5v0
		c0,0-3.8-0.1-4.1-0.5C76.7,25.5,78,24,78,24z"/>
	<path fill="#B44738" d="M64,65c-12.4,0-22.5-2.1-23-3.9c0,0.3,0,0.6,0,0.9c0,1.8,10.3,4,23,4s23.1-1.9,23-4l-0.1-0.7
		C86.1,63.2,76.1,65,64,65z"/>
</g>
</svg>
